<?xml version="1.0" encoding="utf-8"?>
<!-- Generator: Adobe Illustrator 17.1.0, SVG Export Plug-In . SVG Version: 6.00 Build 0)  -->
<!DOCTYPE svg PUBLIC "-//W3C//DTD SVG 1.1//EN" "http://www.w3.org/Graphics/SVG/1.1/DTD/svg11.dtd">
<svg version="1.1" id="レイヤー_1" xmlns="http://www.w3.org/2000/svg" xmlns:xlink="http://www.w3.org/1999/xlink" x="0px"
	 y="0px" viewBox="0 0 86 86" enable-background="new 0 0 86 86" xml:space="preserve">
<path fill="#AFAEAE" d="M75.5,36.2C75.5,18.7,61,4.6,43,4.6c-18,0-32.5,14.2-32.5,31.7c0,14.2,9.5,26.2,22.7,30.2
	c-3.9,4.4-7,11.2-8.8,19.5h37.2c-1.7-8.3-4.8-15.2-8.8-19.6C66,62.4,75.5,50.4,75.5,36.2z M52.1,20.1l3.7,0c1,0,1.8,0.8,1.8,1.8v9.1
	c0,1-0.8,1.8-1.8,1.8h-3.7c-1,0-1.8-0.8-1.8-1.8l0-9.1C50.3,21,51.1,20.1,52.1,20.1z M30.2,20.1l3.7,0c1,0,1.8,0.8,1.8,1.8l0,9.1
	c0,1-0.8,1.8-1.8,1.8l-3.7,0c-1,0-1.8-0.8-1.8-1.8l0-9.1C28.4,21,29.2,20.1,30.2,20.1z M59.2,44.9c-0.1,0.4-3.3,9.6-16.2,9.5
	c-12.9,0-16.1-9.2-16.2-9.6c-0.1-0.3-0.1-0.7,0.1-1c0.2-0.3,0.4-0.5,0.7-0.6l3.6-1.1c0.5,0,1,0.3,1.2,0.9c0.1,0.2,2,5.5,10.6,5.5
	c8.6,0,10.5-5.5,10.6-5.5c0.2-0.5,0.7-0.9,1.2-0.9l0.4,0.1l3.2,1.1c0.3,0.1,0.6,0.3,0.7,0.6C59.3,44.2,59.3,44.6,59.2,44.9z"/>
</svg>
