<?xml version="1.0" encoding="utf-8"?>
<!-- Generator: Adobe Illustrator 17.1.0, SVG Export Plug-In . SVG Version: 6.00 Build 0)  -->
<!DOCTYPE svg PUBLIC "-//W3C//DTD SVG 1.1//EN" "http://www.w3.org/Graphics/SVG/1.1/DTD/svg11.dtd">
<svg version="1.1" id="レイヤー_1" xmlns="http://www.w3.org/2000/svg" xmlns:xlink="http://www.w3.org/1999/xlink" x="0px"
	 y="0px" viewBox="0 0 60 60" enable-background="new 0 0 60 60" xml:space="preserve">
<rect x="18.8" y="11.6" fill="#A4A4A3" width="4.9" height="37.3"/>
<polygon fill="#D91817" points="22.3,14.2 22.3,27.1 22.3,39.9 51.8,27.1 "/>
<circle fill="#FFFFFF" cx="31.5" cy="27.1" r="6.1"/>
<path fill="#D91817" d="M34.1,30.3c-0.4,0-0.6-0.3-0.6-0.6v-3.1L32,29c-0.2,0.4-0.8,0.4-1.1,0l-1.4-2.4v3c0,0.4-0.3,0.6-0.6,0.6
	c-0.3,0-0.6-0.3-0.6-0.6v-5.2c0-0.4,0.2-0.7,0.6-0.7c0.2,0,0.4,0.1,0.5,0.4l2.1,3.4l2.1-3.4c0.1-0.2,0.3-0.3,0.5-0.3
	c0.4,0,0.6,0.3,0.6,0.7v5.2C34.8,30.1,34.5,30.3,34.1,30.3z"/>
<path fill="#6E6E6D" d="M21.5,44.3c-7.8,0-8.5,7-8.5,7h8.5h8.5C29.9,51.4,29.3,44.3,21.5,44.3z"/>
<circle fill="#F5CD21" cx="21.1" cy="12.4" r="3.7"/>
</svg>
