<?xml version="1.0" encoding="utf-8"?>
<!-- Generator: Adobe Illustrator 17.1.0, SVG Export Plug-In . SVG Version: 6.00 Build 0)  -->
<!DOCTYPE svg PUBLIC "-//W3C//DTD SVG 1.1//EN" "http://www.w3.org/Graphics/SVG/1.1/DTD/svg11.dtd">
<svg version="1.1" id="レイヤー_1" xmlns="http://www.w3.org/2000/svg" xmlns:xlink="http://www.w3.org/1999/xlink" x="0px"
	 y="0px" viewBox="0 0 60 60" enable-background="new 0 0 60 60" xml:space="preserve">
<path fill="#177A58" d="M40.9,15.2h-3.3V12c0-1.1-0.9-2-2-2H23.9c-1.1,0-2,0.9-2,2v3.2h-3.4c-2.5,0-4.4,2-4.4,4.4h31.3
	C45.3,17.2,43.3,15.2,40.9,15.2z M34.1,15.2h-8.7v-2.5h8.7V15.2z"/>
<path fill="#177A58" d="M45.3,23.7h-1.9v-2.2H16v2.2h-1.9c-1.1,0-2,0.9-2,2s0.9,2,2,2H16v18.1c0,2.5,2,4.5,4.6,4.5h18.2
	c2.5,0,4.6-2,4.6-4.5V27.6h1.9c1.1,0,2-0.9,2-2C47.3,24.6,46.4,23.7,45.3,23.7z M23.7,46.1h-2.5V27.1h2.5V46.1z M31,46.1h-2.5V27.1
	H31V46.1z M38.3,46.1h-2.5V27.1h2.5V46.1z"/>
</svg>
